<svg width="25" height="25" viewBox="0 0 25 25" fill="none" xmlns="http://www.w3.org/2000/svg">
<path d="M16.2292 12.5007C16.2292 14.5632 14.5625 16.2298 12.5 16.2298C10.4375 16.2298 8.77087 14.5632 8.77087 12.5007C8.77087 10.4382 10.4375 8.77148 12.5 8.77148C14.5625 8.77148 16.2292 10.4382 16.2292 12.5007Z" stroke="#fff" stroke-width="1.5" stroke-linecap="round" stroke-linejoin="round"/>
<path d="M12.5 21.1146C16.177 21.1146 19.6041 18.9479 21.9895 15.1979C22.927 13.7292 22.927 11.2604 21.9895 9.79167C19.6041 6.04167 16.177 3.875 12.5 3.875C8.82288 3.875 5.39579 6.04167 3.01038 9.79167C2.07288 11.2604 2.07288 13.7292 3.01038 15.1979C5.39579 18.9479 8.82288 21.1146 12.5 21.1146Z" stroke="#fff" stroke-width="1.5" stroke-linecap="round" stroke-linejoin="round"/>
</svg>
