<svg width="25" height="25" viewBox="0 0 25 25" fill="none" xmlns="http://www.w3.org/2000/svg">
<path d="M15.1354 9.86506L9.86457 15.1359C9.16562 14.4369 8.77295 13.489 8.77295 12.5005C8.77295 12.011 8.86935 11.5264 9.05665 11.0742C9.24395 10.622 9.51849 10.2112 9.86457 9.86506C10.2107 9.51897 10.6215 9.24444 11.0737 9.05714C11.5259 8.86984 12.0105 8.77344 12.5 8.77344C13.4885 8.77344 14.4365 9.16611 15.1354 9.86506Z" stroke="#fff" stroke-width="1.5" stroke-linecap="round" stroke-linejoin="round"/>
<path d="M18.5625 6.00977C16.7395 4.63477 14.6562 3.88477 12.5 3.88477C8.82288 3.88477 5.39579 6.05143 3.01038 9.80143C2.07288 11.2702 2.07288 13.7389 3.01038 15.2077C3.83329 16.4993 4.79163 17.6139 5.83329 18.5098M8.77079 20.3431C9.95829 20.8431 11.2187 21.1139 12.5 21.1139C16.177 21.1139 19.6041 18.9473 21.9895 15.1973C22.927 13.7285 22.927 11.2598 21.9895 9.79101C21.6458 9.24935 21.2708 8.73893 20.8854 8.25977" stroke="#fff" stroke-width="1.5" stroke-linecap="round" stroke-linejoin="round"/>
<path d="M16.1563 13.2298C16.0152 13.9565 15.6601 14.6243 15.1367 15.1478C14.6133 15.6712 13.9454 16.0262 13.2188 16.1673M9.86462 15.1361L2.08337 22.9173M22.9167 2.08398L15.1355 9.86524" stroke="#fff" stroke-width="1.5" stroke-linecap="round" stroke-linejoin="round"/>
</svg>
